<svg xmlns="http://www.w3.org/2000/svg" xmlns:xlink="http://www.w3.org/1999/xlink" width="100%" height="100%" viewBox="-4 -4 108 108">
<path
d="M99.239,41.312c-1.539-8.726-5.263-16.514-10.497-22.918c-0.048-0.059-0.09-0.122-0.138-0.18  c-0.001,0.004-0.002,0.008-0.003,0.012C77.83,5.163,60.723-2.062,42.896,0.508l-0.005-0.028l-3.15,0.555l0.015,0.083  C22.121,4.848,8.479,17.519,2.913,33.521c-0.037-0.059-0.084-0.117-0.119-0.177c-0.389,1.1-0.74,2.216-1.051,3.346  c0.044,0.048,0.096,0.094,0.141,0.142C0.015,43.737-0.385,51.157,1,58.676c0,0.001,0,0.002,0,0.003l-0.153,0.007  c0.065,0.37,0.094,0.733,0.201,1.09c5.188,26.042,29.825,43.445,56.049,39.687l0.01,0.054l1.511-0.267  c0.017-0.003,0.033-0.004,0.051-0.007c0.014-0.002,0.026-0.006,0.04-0.009l1.549-0.273l-0.01-0.054  C86.567,93.411,103.941,67.979,99.239,41.312z M89.07,23.924c0.103,0.154,0.21,0.302,0.311,0.458C92.809,29.677,95,35.54,96,41.808  c0,0.001,0,0.002,0,0.003l0.184,0.005c0,0-0.201,4.231-1.864,6.589c-1.808,2.562-4.729,5.218-8.552,7.681  c-1.594,1.025-3.291,2.009-5.128,2.949c0.004-4.58-0.384-9.355-1.242-14.224c-0.67-3.8-1.582-7.453-2.695-10.919  C82.288,30.857,86.57,27.431,89.07,23.924z M51.568,68.11c-5.946,0.968-11.796,1.478-17.4,1.472  c-2.348-0.004-4.608-0.098-6.779-0.271c-1.783-4.605-3.146-9.502-4.046-14.613c-0.612-3.472-0.986-6.923-1.137-10.328  c7.349,0.776,15.946,0.507,25.007-0.96L51.568,68.11z M50.363,42.853c8.994-1.721,17.145-4.403,23.771-7.64  c1.022,3.251,1.852,6.622,2.464,10.094c0.901,5.112,1.295,10.178,1.195,15.117c-1.98,0.906-4.071,1.766-6.276,2.572  c-5.248,1.916-10.9,3.434-16.798,4.558L50.363,42.853z M60.529,4.032c5.939,1.363,11.495,3.835,16.511,7.348  c4.017,2.813,7.379,6.186,10.265,10.041c-0.157,0.258-0.315,0.516-0.5,0.777c-1.678,2.38-4.445,4.85-8.003,7.142  c-0.963,0.621-1.978,1.225-3.037,1.812C70.921,17.8,63.018,7.573,54.276,3.048C56.37,3.238,58.462,3.558,60.529,4.032z M52.21,5.195  c3.582,1.691,7.039,4.446,10.278,8.188c3.32,3.835,6.221,8.492,8.623,13.84c0.767,1.706,1.463,3.464,2.104,5.259  c-2.392,1.185-4.981,2.293-7.764,3.311c-4.87,1.78-10.115,3.191-15.586,4.239L43.405,3.39C46.281,3.192,49.234,3.789,52.21,5.195z   M40.253,3.938l6.462,36.65c-5.52,0.893-10.95,1.364-16.154,1.357c-2.962-0.004-5.774-0.16-8.427-0.456  c-0.011-1.906,0.042-3.796,0.179-5.662c0.428-5.848,1.562-11.216,3.369-15.955c1.764-4.625,4.07-8.396,6.858-11.211  C34.872,6.309,37.462,4.731,40.253,3.938z M11.389,22.956c3.513-5.016,7.887-9.239,13.003-12.552  c1.749-1.133,3.565-2.129,5.433-3.013c-6.644,7.246-10.559,19.542-10.547,33.72c-1.195-0.189-2.352-0.41-3.467-0.663  c-4.127-0.938-7.571-2.312-9.963-3.975c-0.291-0.202-0.555-0.41-0.812-0.618C6.479,31.269,8.6,26.94,11.389,22.956z M3.58,58.18  c-1.105-6.269-0.95-12.564,0.461-18.712c0.051-0.223,0.115-0.442,0.169-0.664c3.548,2.474,8.78,4.251,15.12,5.201  c0.139,3.641,0.529,7.386,1.199,11.189c0.858,4.867,2.112,9.493,3.682,13.794c-2.046-0.256-4.001-0.59-5.848-1.009  c-4.435-1.006-8.14-2.483-10.714-4.272c-2.056-1.43-3.371-3.05-3.911-4.739C3.688,58.704,3.627,58.444,3.58,58.18z M39.477,95.955  c-5.94-1.363-11.495-3.836-16.512-7.348c-5.016-3.512-9.238-7.887-12.552-13.004c-1.977-3.052-3.565-6.298-4.778-9.696  c4.368,3.246,11.304,5.372,19.794,6.197C30.313,83.832,37.606,92.764,45.6,96.928C43.547,96.735,41.503,96.42,39.477,95.955z   M47.731,94.811c-3.582-1.691-7.04-4.445-10.279-8.188c-3.319-3.836-6.221-8.493-8.623-13.842c-0.064-0.145-0.124-0.292-0.188-0.437  c7.08,0.403,15.065-0.043,23.425-1.409l4.527,25.671C53.699,96.818,50.727,96.225,47.731,94.811z M59.743,96.049l-4.526-25.67  c8.301-1.574,15.937-3.883,22.438-6.676c-0.011,0.157-0.016,0.316-0.027,0.474c-0.428,5.848-1.561,11.216-3.369,15.956  c-1.764,4.625-4.07,8.396-6.858,11.209C65.084,93.68,62.515,95.252,59.743,96.049z M75.614,89.584  c-1.776,1.15-3.623,2.162-5.521,3.056c6.107-6.643,9.913-17.548,10.493-30.259c7.755-3.707,13.576-8.115,16.552-12.697  c0.029,3.639-0.354,7.263-1.174,10.836c-1.363,5.941-3.835,11.496-7.348,16.512C85.104,82.047,80.729,86.271,75.614,89.584z"
style="stroke:rgba(255,255,255,1); fill:rgba(255,255,255,1); stroke:rgba(255,255,255,1); stroke-width:8; fill:rgba(255,255,255,1);" />
</svg>
