<svg xmlns="http://www.w3.org/2000/svg" width="100%" height="100%" viewBox="0 0 4800 4800">
	<polygon points="400,1500 850,1725 1150,1575 2400,950 3650,1575 3950,1725 4400,1500 2400,500" style="fill:rgba(255,255,255,1);" />
	<polygon points="400,1500 850,1275 1150,1425 2400,2050 3650,1425 3950,1275 4400,1500 2400,2500" style="fill:rgba(255,255,255,1);" />
	<polygon points="400,2400 850,2175 1150,2325 2400,2950 3650,2325 3950,2175 4400,2400 2400,3400" style="fill:rgba(255,255,255,1);" />
	<polygon points="400,3300 850,3075 1150,3225 2400,3850 3650,3225 3950,3075 4400,3300 2400,4300" style="fill:rgba(255,255,255,1);" />
</svg>
