<svg xmlns="http://www.w3.org/2000/svg" width="100%" height="100%" viewBox="0 0 100 100">
<path d="M83.7,37.2v-8.6c0-1.2-0.4-2.1-1.1-2.8L63.3,6.5c-0.8-0.6-1.6-1.1-2.9-1.1h-40c-2.2,0-3.9,1.8-3.9,4v27.8H9 c-2.2,0-4,1.9-4,4.2v37c0,2.1,1.8,3.9,4,3.9h7.4v8.4c0,2.2,1.8,4,3.9,4h59.2c2.3,0,4.1-1.8,4.1-4v-8.4H91c2.3,0,4-1.8,4-3.9v-37  c0-2.3-1.7-4.2-4-4.2H83.7z M24.5,86.3V60.4h51.2v25.9H24.5z M24.5,37.2V13.5h31.8v15.1c0,2.3,1.9,4.1,4.1,4.1h15.3v4.6H24.5z   M83.7,52.8c-2.3,0-4-1.9-4-4.3c0-2.2,1.8-4.1,4-4.1c2.3,0,4.1,1.9,4.1,4.1C87.8,50.9,86,52.8,83.7,52.8L83.7,52.8z M30.5,65v6h38.8  v-6H30.5z M30.5,74.7v5.9h38.8v-5.9H30.5z" style="stroke:rgba(255,255,255,1); fill:rgba(255,255,255,1);"/>
</svg>
